<svg width="34" height="34" viewBox="0 0 34 34" fill="none" xmlns="http://www.w3.org/2000/svg">
<path fill-rule="evenodd" clip-rule="evenodd" d="M17.5904 10.7712C17.5904 10.378 17.2717 10.0593 16.8785 10.0593C16.4853 10.0593 16.1666 10.378 16.1666 10.7712V16.1663H10.7719C10.3788 16.1663 10.0601 16.485 10.0601 16.8781C10.0601 17.2713 10.3788 17.59 10.7719 17.59H16.1666V22.9851C16.1666 23.3782 16.4853 23.6969 16.8785 23.6969C17.2717 23.6969 17.5904 23.3782 17.5904 22.9851V17.59H22.9858C23.379 17.59 23.6977 17.2713 23.6977 16.8781C23.6977 16.485 23.379 16.1663 22.9858 16.1663H17.5904V10.7712Z" fill="#66DB9C"/>
<rect x="0.5" y="0.5" width="33" height="33" rx="5.5" stroke="#66DB9C"/>
</svg>
