<svg width="15" height="14" viewBox="0 0 15 14" fill="none" xmlns="http://www.w3.org/2000/svg">
<path fill-rule="evenodd" clip-rule="evenodd" d="M8.27079 0.728466C8.27079 0.335314 7.95207 0.0166016 7.55892 0.0166016C7.16577 0.0166015 6.84706 0.335314 6.84706 0.728466V6.12347H1.45234C1.05919 6.12347 0.740479 6.44218 0.740479 6.83533C0.740479 7.22849 1.05919 7.5472 1.45234 7.5472H6.84706V12.9423C6.84706 13.3355 7.16577 13.6542 7.55892 13.6542C7.95207 13.6542 8.27078 13.3355 8.27078 12.9423V7.5472H13.6662C14.0594 7.5472 14.3781 7.22849 14.3781 6.83533C14.3781 6.44218 14.0594 6.12347 13.6662 6.12347H8.27079V0.728466Z" fill="#8471DF"/>
</svg>
