<svg width="8" height="9" viewBox="0 0 8 9" fill="none" xmlns="http://www.w3.org/2000/svg">
<path fill-rule="evenodd" clip-rule="evenodd" d="M1.23974 0.845391C1.04438 0.65023 0.727629 0.65023 0.532265 0.845391C0.336901 1.04055 0.336901 1.35697 0.532265 1.55213L3.44052 4.45736L0.532354 7.36395C0.337039 7.55916 0.337039 7.87566 0.532354 8.07087C0.727669 8.26608 1.04434 8.26608 1.23965 8.07087L4.148 5.16409L7.05577 8.06884C7.25113 8.264 7.56788 8.264 7.76324 8.06884C7.95861 7.87367 7.95861 7.55726 7.76324 7.3621L4.8553 4.45718L7.7615 1.55255C7.95681 1.35734 7.95681 1.04085 7.7615 0.845636C7.56618 0.650426 7.24951 0.650427 7.0542 0.845636L4.14782 3.75044L1.23974 0.845391Z" fill="white"/>
</svg>
