<svg width="17" height="17" viewBox="0 0 17 17" fill="none" xmlns="http://www.w3.org/2000/svg">
<path fill-rule="evenodd" clip-rule="evenodd" d="M5.23974 4.84539C5.04438 4.65023 4.72763 4.65023 4.53227 4.84539C4.3369 5.04055 4.3369 5.35697 4.53227 5.55213L7.44052 8.45736L4.53235 11.364C4.33704 11.5592 4.33704 11.8757 4.53235 12.0709C4.72767 12.2661 5.04434 12.2661 5.23965 12.0709L8.148 9.16409L11.0558 12.0688C11.2511 12.264 11.5679 12.264 11.7632 12.0688C11.9586 11.8737 11.9586 11.5573 11.7632 11.3621L8.8553 8.45718L11.7615 5.55255C11.9568 5.35734 11.9568 5.04085 11.7615 4.84564C11.5662 4.65043 11.2495 4.65043 11.0542 4.84564L8.14782 7.75044L5.23974 4.84539Z" fill="white"/>
</svg>
