<svg width="16" height="18" viewBox="0 0 16 18" fill="none" xmlns="http://www.w3.org/2000/svg">
<path fill-rule="evenodd" clip-rule="evenodd" d="M3.75 1.5C2.50736 1.5 1.5 2.50736 1.5 3.75V13.75C1.5 14.9926 2.50736 16 3.75 16H11.75C12.9926 16 14 14.9926 14 13.75V6.56294C14 5.97942 13.7733 5.41872 13.3678 4.99917L11.3108 2.87126L11.3029 2.86302L11.3029 2.86296L10.6919 2.21114C10.2665 1.75742 9.67232 1.5 9.0504 1.5H3.75ZM0 3.75C0 1.67893 1.67893 0 3.75 0H9.0504C10.0869 0 11.0772 0.429033 11.7862 1.18523L12.3933 1.83284L14.4462 3.95665C15.1222 4.6559 15.5 5.5904 15.5 6.56294V13.75C15.5 15.8211 13.8211 17.5 11.75 17.5H3.75C1.67893 17.5 0 15.8211 0 13.75V3.75ZM4 7.75C4 7.33579 4.33579 7 4.75 7H7.75C8.16421 7 8.5 7.33579 8.5 7.75C8.5 8.16421 8.16421 8.5 7.75 8.5H4.75C4.33579 8.5 4 8.16421 4 7.75ZM4.75 10C4.33579 10 4 10.3358 4 10.75C4 11.1642 4.33579 11.5 4.75 11.5H10.75C11.1642 11.5 11.5 11.1642 11.5 10.75C11.5 10.3358 11.1642 10 10.75 10H4.75Z" fill="white"/>
</svg>
