<svg width="34" height="35" viewBox="0 0 34 35" fill="none" xmlns="http://www.w3.org/2000/svg">
<path fill-rule="evenodd" clip-rule="evenodd" d="M17.5901 11.7288C17.5901 11.3356 17.2714 11.0169 16.8783 11.0169C16.4851 11.0169 16.1664 11.3356 16.1664 11.7288V17.1238H10.7717C10.3785 17.1238 10.0598 17.4426 10.0598 17.8357C10.0598 18.2289 10.3785 18.5476 10.7717 18.5476H16.1664V23.9427C16.1664 24.3358 16.4851 24.6545 16.8783 24.6545C17.2714 24.6545 17.5901 24.3358 17.5901 23.9427V18.5476H22.9856C23.3787 18.5476 23.6974 18.2289 23.6974 17.8357C23.6974 17.4426 23.3787 17.1238 22.9856 17.1238H17.5901V11.7288Z" fill="#66DB9C"/>
<rect x="0.5" y="1.45763" width="33" height="33" rx="5.5" stroke="#66DB9C"/>
</svg>
