<svg width="22" height="22" viewBox="0 0 22 22" fill="none" xmlns="http://www.w3.org/2000/svg">
<path fill-rule="evenodd" clip-rule="evenodd" d="M11.5899 4.7288C11.5899 4.33565 11.2712 4.01694 10.878 4.01694C10.4849 4.01694 10.1661 4.33565 10.1661 4.7288V10.1238H4.77143C4.37828 10.1238 4.05957 10.4426 4.05957 10.8357C4.05957 11.2289 4.37828 11.5476 4.77143 11.5476H10.1661V16.9427C10.1661 17.3358 10.4849 17.6545 10.878 17.6545C11.2712 17.6545 11.5899 17.3358 11.5899 16.9427V11.5476H16.9853C17.3785 11.5476 17.6972 11.2289 17.6972 10.8357C17.6972 10.4426 17.3785 10.1238 16.9853 10.1238H11.5899V4.7288Z" fill="#66DB9C"/>
</svg>
