<svg width="22" height="23" viewBox="0 0 22 23" fill="none" xmlns="http://www.w3.org/2000/svg">
<path fill-rule="evenodd" clip-rule="evenodd" d="M4.81757 9.51476C5.30986 9.02247 5.97754 8.74591 6.67373 8.74591H8.67585C9.069 8.74591 9.38771 8.4272 9.38771 8.03405C9.38771 7.6409 9.069 7.32218 8.67585 7.32218H6.67373C5.59994 7.32218 4.57013 7.74874 3.81085 8.50803C3.05156 9.26731 2.625 10.2971 2.625 11.3709C2.625 12.4447 3.05156 13.4745 3.81085 14.2338C4.1868 14.6098 4.63313 14.908 5.12435 15.1115C5.61556 15.3149 6.14204 15.4196 6.67373 15.4196H8.67585C9.069 15.4196 9.38771 15.1009 9.38771 14.7078C9.38771 14.3146 9.069 13.9959 8.67585 13.9959H6.67373C6.32901 13.9959 5.98766 13.928 5.66918 13.7961C5.35071 13.6642 5.06133 13.4708 4.81757 13.2271C4.32529 12.7348 4.04873 12.0671 4.04873 11.3709C4.04873 10.6747 4.32529 10.007 4.81757 9.51476ZM12.6801 7.32218C12.2869 7.32218 11.9682 7.6409 11.9682 8.03405C11.9682 8.4272 12.2869 8.74591 12.6801 8.74591H14.6822C15.0269 8.74591 15.3683 8.81381 15.6867 8.94573C16.0052 9.07765 16.2946 9.271 16.5384 9.51476C16.7821 9.75851 16.9755 10.0479 17.1074 10.3664C17.2393 10.6848 17.3072 11.0262 17.3072 11.3709C17.3072 11.7156 17.2393 12.057 17.1074 12.3755C16.9755 12.6939 16.7821 12.9833 16.5384 13.2271C16.2946 13.4708 16.0052 13.6642 15.6867 13.7961C15.3683 13.928 15.0269 13.9959 14.6822 13.9959H12.6801C12.2869 13.9959 11.9682 14.3146 11.9682 14.7078C11.9682 15.1009 12.2869 15.4196 12.6801 15.4196H14.6822C15.2139 15.4196 15.7404 15.3149 16.2316 15.1115C16.7228 14.908 17.1691 14.6098 17.5451 14.2338C17.921 13.8578 18.2193 13.4115 18.4227 12.9203C18.6262 12.4291 18.7309 11.9026 18.7309 11.3709C18.7309 10.8392 18.6262 10.3127 18.4227 9.82153C18.2193 9.33032 17.921 8.88399 17.5451 8.50803C17.1691 8.13207 16.7228 7.83384 16.2316 7.63037C15.7404 7.42691 15.2139 7.32218 14.6822 7.32218H12.6801ZM8.00847 10.659C7.61532 10.659 7.29661 10.9778 7.29661 11.3709C7.29661 11.7641 7.61532 12.0828 8.00847 12.0828H13.3475C13.7406 12.0828 14.0593 11.7641 14.0593 11.3709C14.0593 10.9778 13.7406 10.659 13.3475 10.659H8.00847Z" fill="white"/>
</svg>
