<svg width="20" height="20" viewBox="0 0 20 20" fill="none" xmlns="http://www.w3.org/2000/svg">
<path fill-rule="evenodd" clip-rule="evenodd" d="M2.52527 0.466095C1.54239 0.466095 0.745605 1.26288 0.745605 2.24576V6.99152C0.745605 7.9744 1.54239 8.77118 2.52527 8.77118H7.27103C8.25391 8.77118 9.05069 7.9744 9.05069 6.99152V2.24576C9.05069 1.26288 8.25391 0.466095 7.27103 0.466095H2.52527ZM2.52527 2.24576H4.30493H5.49137H7.27103V4.02542V5.21186V6.99152H5.49137H4.30493H2.52527V5.21186V4.02542V2.24576ZM2.52527 11.1441C1.54239 11.1441 0.745605 11.9408 0.745605 12.9237V17.6695C0.745605 18.6524 1.54239 19.4491 2.52527 19.4491H7.27103C8.25391 19.4491 9.05069 18.6524 9.05069 17.6695V12.9237C9.05069 11.9408 8.25391 11.1441 7.27103 11.1441H2.52527ZM2.52527 12.9237H4.30493H5.49137H7.27103V14.7034V15.8898V17.6695H5.49137H4.30493H2.52527V15.8898V14.7034V12.9237ZM11.4236 2.24576C11.4236 1.26288 12.2204 0.466095 13.2032 0.466095H17.949C18.9319 0.466095 19.7287 1.26288 19.7287 2.24576V6.99152C19.7287 7.9744 18.9319 8.77118 17.949 8.77118H13.2032C12.2204 8.77118 11.4236 7.9744 11.4236 6.99152V2.24576ZM14.9829 2.24576H13.2032V4.02542V5.21186V6.99152H14.9829H16.1693H17.949V5.21186V4.02542V2.24576H16.1693H14.9829ZM13.2032 11.1441C12.2204 11.1441 11.4236 11.9408 11.4236 12.9237V17.6695C11.4236 18.6524 12.2204 19.4491 13.2032 19.4491H17.949C18.9319 19.4491 19.7287 18.6524 19.7287 17.6695V12.9237C19.7287 11.9408 18.9319 11.1441 17.949 11.1441H13.2032ZM13.2032 12.9237H14.9829H16.1693H17.949V14.7034V15.8898V17.6695H16.1693H14.9829H13.2032V15.8898V14.7034V12.9237Z" fill="white"/>
</svg>
