<svg width="125" height="27" viewBox="0 0 125 27" fill="none" xmlns="http://www.w3.org/2000/svg">
<path d="M17.2287 6.81851V21.577H13.1256V13.4336L10.3414 21.577H6.90821L4.10306 13.3708V21.577H0V6.81851H4.96135L8.66666 16.4063L12.2882 6.81851H17.2287Z" fill="#66DB9C"/>
<path d="M18.8944 15.6945C18.8944 14.4803 19.1107 13.4197 19.5433 12.5126C19.9899 11.6054 20.59 10.9076 21.3436 10.4192C22.1112 9.9307 22.9625 9.68647 23.8976 9.68647C24.707 9.68647 25.4048 9.84696 25.991 10.1679C26.5771 10.4889 27.0307 10.9216 27.3517 11.4659V9.833H31.4548V21.577H27.3517V19.9441C27.0307 20.4884 26.5702 20.921 25.9701 21.242C25.3839 21.563 24.6931 21.7235 23.8976 21.7235C22.9625 21.7235 22.1112 21.4793 21.3436 20.9908C20.59 20.5024 19.9899 19.8046 19.5433 18.8974C19.1107 17.9763 18.8944 16.9087 18.8944 15.6945ZM27.3517 15.6945C27.3517 14.9409 27.1424 14.3478 26.7237 13.9151C26.319 13.4825 25.8165 13.2662 25.2164 13.2662C24.6024 13.2662 24.093 13.4825 23.6883 13.9151C23.2835 14.3338 23.0812 14.9269 23.0812 15.6945C23.0812 16.4481 23.2835 17.0482 23.6883 17.4948C24.093 17.9275 24.6024 18.1438 25.2164 18.1438C25.8165 18.1438 26.319 17.9275 26.7237 17.4948C27.1424 17.0622 27.3517 16.4621 27.3517 15.6945Z" fill="#66DB9C"/>
<path d="M37.8959 18.4369H42.4804V21.577H33.7928V6.81851H37.8959V18.4369Z" fill="#8E59FF"/>
<path d="M49.5396 21.7235C48.3673 21.7235 47.3136 21.4793 46.3785 20.9908C45.4575 20.5024 44.7317 19.8046 44.2014 18.8974C43.6711 17.9903 43.4059 16.9226 43.4059 15.6945C43.4059 14.4803 43.6711 13.4197 44.2014 12.5126C44.7457 11.6054 45.4784 10.9076 46.3995 10.4192C47.3345 9.9307 48.3882 9.68647 49.5605 9.68647C50.7328 9.68647 51.7795 9.9307 52.7006 10.4192C53.6357 10.9076 54.3683 11.6054 54.8987 12.5126C55.443 13.4197 55.7151 14.4803 55.7151 15.6945C55.7151 16.9087 55.443 17.9763 54.8987 18.8974C54.3683 19.8046 53.6357 20.5024 52.7006 20.9908C51.7656 21.4793 50.7119 21.7235 49.5396 21.7235ZM49.5396 18.1647C50.1118 18.1647 50.5863 17.9554 50.9631 17.5367C51.3539 17.1041 51.5492 16.49 51.5492 15.6945C51.5492 14.899 51.3539 14.2919 50.9631 13.8733C50.5863 13.4546 50.1188 13.2452 49.5605 13.2452C49.0023 13.2452 48.5347 13.4546 48.1579 13.8733C47.7811 14.2919 47.5927 14.899 47.5927 15.6945C47.5927 16.504 47.7741 17.118 48.137 17.5367C48.4999 17.9554 48.9674 18.1647 49.5396 18.1647Z" fill="#8E59FF"/>
<path d="M72.729 9.72834C74.2083 9.72834 75.3667 10.1749 76.204 11.0681C77.0554 11.9613 77.481 13.1824 77.481 14.7316V21.577H73.378V15.2758C73.378 14.6478 73.2035 14.1594 72.8546 13.8105C72.5057 13.4616 72.0312 13.2871 71.4311 13.2871C70.831 13.2871 70.3565 13.4616 70.0076 13.8105C69.6587 14.1594 69.4842 14.6478 69.4842 15.2758V21.577H65.3812V15.2758C65.3812 14.6478 65.2067 14.1594 64.8578 13.8105C64.5229 13.4616 64.0554 13.2871 63.4553 13.2871C62.8412 13.2871 62.3597 13.4616 62.0108 13.8105C61.6619 14.1594 61.4875 14.6478 61.4875 15.2758V21.577H57.3844V9.833H61.4875V11.3821C61.8503 10.8797 62.3178 10.482 62.89 10.1889C63.4762 9.88185 64.1461 9.72834 64.8997 9.72834C65.765 9.72834 66.5326 9.91674 67.2024 10.2936C67.8863 10.6704 68.4236 11.2007 68.8144 11.8845C69.233 11.2426 69.7843 10.7262 70.4681 10.3354C71.152 9.9307 71.9056 9.72834 72.729 9.72834Z" fill="#8E59FF"/>
<path d="M79.0591 15.6945C79.0591 14.4803 79.2754 13.4197 79.708 12.5126C80.1546 11.6054 80.7617 10.9076 81.5293 10.4192C82.2969 9.9307 83.1482 9.68647 84.0832 9.68647C84.8369 9.68647 85.5067 9.84696 86.0929 10.1679C86.693 10.475 87.1605 10.9006 87.4955 11.4449V6.08583H91.6195V21.577H87.4955V19.9441C87.1745 20.4884 86.7209 20.921 86.1348 21.242C85.5486 21.563 84.8578 21.7235 84.0623 21.7235C83.1273 21.7235 82.2759 21.4793 81.5084 20.9908C80.7547 20.5024 80.1546 19.8046 79.708 18.8974C79.2754 17.9763 79.0591 16.9087 79.0591 15.6945ZM87.5164 15.6945C87.5164 14.9409 87.3071 14.3478 86.8884 13.9151C86.4837 13.4825 85.9812 13.2662 85.3811 13.2662C84.7671 13.2662 84.2577 13.4825 83.853 13.9151C83.4482 14.3338 83.2459 14.9269 83.2459 15.6945C83.2459 16.4481 83.4482 17.0482 83.853 17.4948C84.2577 17.9275 84.7671 18.1438 85.3811 18.1438C85.9812 18.1438 86.4837 17.9275 86.8884 17.4948C87.3071 17.0622 87.5164 16.4621 87.5164 15.6945Z" fill="#F867AC"/>
<path d="M96.03 8.74444C95.3043 8.74444 94.7181 8.54905 94.2715 8.15829C93.8389 7.75356 93.6226 7.25115 93.6226 6.65104C93.6226 6.03698 93.8389 5.52759 94.2715 5.12286C94.7181 4.71814 95.3043 4.51578 96.03 4.51578C96.7417 4.51578 97.3139 4.71814 97.7466 5.12286C98.1932 5.52759 98.4165 6.03698 98.4165 6.65104C98.4165 7.25115 98.1932 7.75356 97.7466 8.15829C97.3139 8.54905 96.7417 8.74444 96.03 8.74444ZM98.0606 9.833V21.577H93.9575V9.833H98.0606Z" fill="#F867AC"/>
<path d="M117.626 6.81851V21.577H113.523V13.4336L110.739 21.577H107.305L104.5 13.3708V21.577H100.397V6.81851H105.359L109.064 16.4063L112.685 6.81851H117.626Z" fill="#F867AC"/>
<path d="M121.95 21.7444C121.224 21.7444 120.638 21.549 120.192 21.1583C119.759 20.7536 119.543 20.2442 119.543 19.6301C119.543 19.016 119.759 18.5066 120.192 18.1019C120.638 17.6972 121.224 17.4948 121.95 17.4948C122.662 17.4948 123.234 17.6972 123.667 18.1019C124.113 18.5066 124.337 19.016 124.337 19.6301C124.337 20.2302 124.113 20.7326 123.667 21.1373C123.234 21.5421 122.662 21.7444 121.95 21.7444Z" fill="#F867AC"/>
</svg>
