<svg width="262" height="37" viewBox="0 0 262 37" fill="none" xmlns="http://www.w3.org/2000/svg">
<path d="M36.676 5.47145V36.4915H28.052V19.3755L22.2 36.4915H14.984L9.088 19.2435V36.4915H0.464V5.47145H10.892L18.68 25.6235L26.292 5.47145H36.676ZM40.1771 24.1275C40.1771 21.5755 40.6318 19.3461 41.5411 17.4395C42.4798 15.5328 43.7411 14.0661 45.3251 13.0395C46.9384 12.0128 48.7278 11.4995 50.6931 11.4995C52.3944 11.4995 53.8611 11.8368 55.0931 12.5115C56.3251 13.1861 57.2784 14.0955 57.9531 15.2395V11.8075H66.5771V36.4915H57.9531V33.0595C57.2784 34.2035 56.3104 35.1128 55.0491 35.7875C53.8171 36.4621 52.3651 36.7995 50.6931 36.7995C48.7278 36.7995 46.9384 36.2861 45.3251 35.2595C43.7411 34.2328 42.4798 32.7661 41.5411 30.8595C40.6318 28.9235 40.1771 26.6795 40.1771 24.1275ZM57.9531 24.1275C57.9531 22.5435 57.5131 21.2968 56.6331 20.3875C55.7824 19.4781 54.7264 19.0235 53.4651 19.0235C52.1744 19.0235 51.1038 19.4781 50.2531 20.3875C49.4024 21.2675 48.9771 22.5141 48.9771 24.1275C48.9771 25.7115 49.4024 26.9728 50.2531 27.9115C51.1038 28.8208 52.1744 29.2755 53.4651 29.2755C54.7264 29.2755 55.7824 28.8208 56.6331 27.9115C57.5131 27.0021 57.9531 25.7408 57.9531 24.1275Z" fill="#66DB9C"/>
<path d="M80.1153 29.8915H89.7513V36.4915H71.4913V5.47145H80.1153V29.8915ZM104.589 36.7995C102.125 36.7995 99.91 36.2861 97.9446 35.2595C96.0086 34.2328 94.4833 32.7661 93.3686 30.8595C92.254 28.9528 91.6966 26.7088 91.6966 24.1275C91.6966 21.5755 92.254 19.3461 93.3686 17.4395C94.5126 15.5328 96.0526 14.0661 97.9886 13.0395C99.954 12.0128 102.169 11.4995 104.633 11.4995C107.097 11.4995 109.297 12.0128 111.233 13.0395C113.198 14.0661 114.738 15.5328 115.853 17.4395C116.997 19.3461 117.569 21.5755 117.569 24.1275C117.569 26.6795 116.997 28.9235 115.853 30.8595C114.738 32.7661 113.198 34.2328 111.233 35.2595C109.267 36.2861 107.053 36.7995 104.589 36.7995ZM104.589 29.3195C105.791 29.3195 106.789 28.8795 107.581 27.9995C108.402 27.0901 108.813 25.7995 108.813 24.1275C108.813 22.4555 108.402 21.1795 107.581 20.2995C106.789 19.4195 105.806 18.9795 104.633 18.9795C103.459 18.9795 102.477 19.4195 101.685 20.2995C100.893 21.1795 100.497 22.4555 100.497 24.1275C100.497 25.8288 100.878 27.1195 101.641 27.9995C102.403 28.8795 103.386 29.3195 104.589 29.3195ZM153.329 11.5875C156.439 11.5875 158.873 12.5261 160.633 14.4035C162.423 16.2808 163.317 18.8475 163.317 22.1035V36.4915H154.693V23.2475C154.693 21.9275 154.327 20.9008 153.593 20.1675C152.86 19.4341 151.863 19.0675 150.601 19.0675C149.34 19.0675 148.343 19.4341 147.609 20.1675C146.876 20.9008 146.509 21.9275 146.509 23.2475V36.4915H137.885V23.2475C137.885 21.9275 137.519 20.9008 136.785 20.1675C136.081 19.4341 135.099 19.0675 133.837 19.0675C132.547 19.0675 131.535 19.4341 130.801 20.1675C130.068 20.9008 129.701 21.9275 129.701 23.2475V36.4915H121.077V11.8075H129.701V15.0635C130.464 14.0075 131.447 13.1715 132.649 12.5555C133.881 11.9101 135.289 11.5875 136.873 11.5875C138.692 11.5875 140.305 11.9835 141.713 12.7755C143.151 13.5675 144.28 14.6821 145.101 16.1195C145.981 14.7701 147.14 13.6848 148.577 12.8635C150.015 12.0128 151.599 11.5875 153.329 11.5875Z" fill="#8A72FF"/>
<path d="M166.634 24.1275C166.634 21.5755 167.089 19.3461 167.998 17.4395C168.937 15.5328 170.213 14.0661 171.826 13.0395C173.439 12.0128 175.229 11.4995 177.194 11.4995C178.778 11.4995 180.186 11.8368 181.418 12.5115C182.679 13.1568 183.662 14.0515 184.366 15.1955V3.93145H193.034V36.4915H184.366V33.0595C183.691 34.2035 182.738 35.1128 181.506 35.7875C180.274 36.4621 178.822 36.7995 177.15 36.7995C175.185 36.7995 173.395 36.2861 171.782 35.2595C170.198 34.2328 168.937 32.7661 167.998 30.8595C167.089 28.9235 166.634 26.6795 166.634 24.1275ZM184.41 24.1275C184.41 22.5435 183.97 21.2968 183.09 20.3875C182.239 19.4781 181.183 19.0235 179.922 19.0235C178.631 19.0235 177.561 19.4781 176.71 20.3875C175.859 21.2675 175.434 22.5141 175.434 24.1275C175.434 25.7115 175.859 26.9728 176.71 27.9115C177.561 28.8208 178.631 29.2755 179.922 29.2755C181.183 29.2755 182.239 28.8208 183.09 27.9115C183.97 27.0021 184.41 25.7408 184.41 24.1275ZM202.304 9.51945C200.779 9.51945 199.547 9.10879 198.608 8.28745C197.699 7.43679 197.244 6.38079 197.244 5.11945C197.244 3.82879 197.699 2.75812 198.608 1.90745C199.547 1.05679 200.779 0.631453 202.304 0.631453C203.8 0.631453 205.003 1.05679 205.912 1.90745C206.851 2.75812 207.32 3.82879 207.32 5.11945C207.32 6.38079 206.851 7.43679 205.912 8.28745C205.003 9.10879 203.8 9.51945 202.304 9.51945ZM206.572 11.8075V36.4915H197.948V11.8075H206.572ZM247.696 5.47145V36.4915H239.072V19.3755L233.22 36.4915H226.004L220.108 19.2435V36.4915H211.484V5.47145H221.912L229.7 25.6235L237.312 5.47145H247.696ZM256.785 36.8435C255.259 36.8435 254.027 36.4328 253.089 35.6115C252.179 34.7608 251.725 33.6901 251.725 32.3995C251.725 31.1088 252.179 30.0381 253.089 29.1875C254.027 28.3368 255.259 27.9115 256.785 27.9115C258.281 27.9115 259.483 28.3368 260.393 29.1875C261.331 30.0381 261.801 31.1088 261.801 32.3995C261.801 33.6608 261.331 34.7168 260.393 35.5675C259.483 36.4181 258.281 36.8435 256.785 36.8435Z" fill="#F867AC"/>
</svg>
