<svg width="34" height="34" viewBox="0 0 34 34" fill="none" xmlns="http://www.w3.org/2000/svg">
<path fill-rule="evenodd" clip-rule="evenodd" d="M12.1772 4.33544C9.15556 4.33544 6.70605 6.78495 6.70605 9.80658V23.1428C6.70605 26.1644 9.15556 28.6139 12.1772 28.6139H22.7522C25.7738 28.6139 28.2233 26.1644 28.2233 23.1428V9.80657C28.2233 6.78495 25.7738 4.33544 22.7522 4.33544H12.1772ZM8.89451 9.80658C8.89451 7.9936 10.3642 6.52389 12.1772 6.52389H22.7522C24.5651 6.52389 26.0348 7.9936 26.0348 9.80657V23.1428C26.0348 24.9558 24.5651 26.4255 22.7522 26.4255H12.1772C10.3642 26.4255 8.89451 24.9558 8.89451 23.1428V9.80658ZM13.1576 10.8933C12.5533 10.8933 12.0634 11.3832 12.0634 11.9875C12.0634 12.5919 12.5533 13.0818 13.1576 13.0818H17.4345C18.0388 13.0818 18.5287 12.5919 18.5287 11.9875C18.5287 11.3832 18.0388 10.8933 17.4345 10.8933H13.1576ZM12.0634 16.1295C12.0634 15.5252 12.5533 15.0353 13.1576 15.0353H21.7113C22.3156 15.0353 22.8055 15.5252 22.8055 16.1295C22.8055 16.7338 22.3156 17.2237 21.7113 17.2237H13.1576C12.5533 17.2237 12.0634 16.7338 12.0634 16.1295ZM13.1576 19.1771C12.5533 19.1771 12.0634 19.667 12.0634 20.2713C12.0634 20.8757 12.5533 21.3656 13.1576 21.3656H21.7113C22.3156 21.3656 22.8055 20.8757 22.8055 20.2713C22.8055 19.667 22.3156 19.1771 21.7113 19.1771H13.1576Z" fill="white"/>
</svg>
