<?xml version="1.0" standalone="no"?>
<!DOCTYPE svg PUBLIC "-//W3C//DTD SVG 1.0//EN" "http://www.w3.org/TR/2001/REC-SVG-20010904/DTD/svg10.dtd">
<svg fill="white" xmlns="http://www.w3.org/2000/svg" xmlns:xlink="http://www.w3.org/1999/xlink" id="body_1" width="33" height="25">
<g transform="matrix(0.2372592 0 0 0.2372592 1.9227974 -0)">
	<g>
        <path d="M72.81 86.58C 68.979996 91.21 64.34 95.8 58.92 100.350006C 60.089996 100.19 61.26 100.00001 62.399998 99.78001C 65.53 99.15001 68.53 98.23 71.439995 96.97001C 72.92 96.33001 74.35999 95.64001 75.74 94.89001L75.74 94.89001L75.85 95.21001C 76.38 96.72001 77.08 97.97001 77.909996 98.97001C 76.39 99.79001 74.829994 100.55001 73.229996 101.23001C 70.009995 102.62001 66.689995 103.63001 63.269997 104.33001C 59.859997 105.03001 56.319996 105.37001 52.679996 105.37001C 49.039997 105.37001 45.539997 105.02001 42.089996 104.33001C 38.709995 103.670006 35.449997 102.66001 32.259995 101.30001C 32.229996 101.30001 32.169994 101.27001 32.129993 101.24001C 28.969994 99.88001 25.969994 98.24001 23.149994 96.37001C 20.339994 94.51001 17.749994 92.36001 15.369993 89.99001C 12.969994 87.62001 10.849993 85.030014 8.989993 82.210014C 7.089993 79.40002 5.479993 76.390015 4.119993 73.23001C 2.7299933 70.01001 1.7199931 66.69001 1.0199933 63.27001C 0.35 59.86 0 56.32 0 52.69C 0 49.059998 0.35 45.55 1.04 42.1C 1.7 38.719997 2.7199998 35.46 4.0699997 32.269997C 4.0699997 32.239998 4.1 32.179996 4.1299996 32.139996C 5.49 28.949995 7.1299996 25.979996 9 23.159996C 10.86 20.349997 13.01 17.759996 15.38 15.379995C 17.75 12.979996 20.34 10.859995 23.16 8.999995C 25.97 7.099995 28.98 5.489995 32.14 4.1299953C 35.36 2.7399955 38.68 1.7299953 42.1 1.0299954C 45.51 0.35 49.05 0 52.69 0C 56.329998 0 59.829998 0.35 63.28 1.04C 66.659996 1.7 69.92 2.71 73.11 4.0699997C 73.14 4.0699997 73.2 4.1 73.24 4.1299996C 76.4 5.49 79.399994 7.1299996 82.22 9C 85.03 10.86 87.62 13.01 90 15.38C 92.4 17.75 94.52 20.34 96.38 23.16C 98.28 25.97 99.89 28.98 101.25 32.14C 102.64 35.36 103.65 38.68 104.35 42.1C 104.39 42.3 104.43 42.5 104.47 42.699997L104.47 42.699997L99.36 40.899998C 98.770004 38.53 98 36.229996 97.020004 33.979996C 96.23 32.119995 95.340004 30.349995 94.37 28.639996L94.37 28.639996L78.92 28.639996C 80.13 30.709995 81.189995 32.769997 82.1 34.829994L82.1 34.829994L75.9 32.649994C 75.17 31.319994 74.380005 29.979994 73.520004 28.639994L73.520004 28.639994L64.490005 28.639994C 63.430004 28.309994 62.290005 28.229994 61.180004 28.399994C 60.830006 28.459993 60.480003 28.539993 60.130005 28.639994L60.130005 28.639994L54.990005 28.639994L54.990005 50.379993L60.060005 50.379993L61.680004 54.989994L54.990005 54.989994L54.990005 76.729996L69.340004 76.729996L70.96001 81.34L54.99 81.34L54.99 97.6C 61.5 92.26 66.84 86.86 71 81.46L71 81.46L72.81 86.58zM112.3 92.8C 111.53001 93.490005 110.340004 93.5 109.64 92.8L109.64 92.8L95.66 78.9L89.03001 92.090004C 87.03001 96.07001 83.47001 97.87 81.79001 93.11L81.79001 93.11L61.68 36C 61.27 34.83 61.760002 34.36 62.920002 34.77L62.920002 34.77L120.020004 54.870003C 124.78001 56.550003 122.97 60.11 119.00001 62.11L119.00001 62.11L105.810005 68.74L119.71001 82.71C 120.40001 83.409996 120.40001 84.61 119.71001 85.37L119.71001 85.37L112.3 92.8zM46.49 100.35C 39.030003 94.09 33.06 87.77 28.630001 81.36L28.630001 81.36L14.06 81.36C 15.450001 83.26 17 85.03 18.67 86.7C 20.85 88.88 23.19 90.81 25.75 92.52C 28.28 94.229996 31.03 95.71 34 96.979996C 34.04 97 34.07 97 34.1 97.03C 36.98 98.229996 39.949997 99.18 43.039997 99.78C 44.179996 100 45.35 100.19 46.519997 100.35L46.519997 100.35L46.49 100.35zM11.03 76.74L25.7 76.74C 21.62 69.6 19.41 62.329998 19.16 55L19.16 55L4.68 55C 4.81 57.53 5.0899997 59.96 5.5699997 62.36C 6.2 65.49 7.12 68.49 8.379999 71.4C 9.17 73.26 10.05 75.03 11.03 76.74zM4.68 50.38L19.25 50.38C 19.79 43.170002 22.19 35.940002 26.46 28.640001L26.46 28.640001L11.03 28.640001C 10.049999 30.350002 9.17 32.120003 8.379999 33.980003C 8.349999 34.010002 8.349999 34.040005 8.319999 34.070004C 7.119999 36.950005 6.1699986 39.920002 5.5699987 43.010002C 5.09 45.42 4.77 47.85 4.68 50.38zM14.03 24.02L29.42 24.02C 33.82 17.7 39.6 11.35 46.81 4.96C 45.510002 5.12 44.25 5.31 43.02 5.56C 39.89 6.19 36.89 7.1099997 33.98 8.37C 31.039999 9.63 28.289999 11.12 25.73 12.83C 23.17 14.54 20.83 16.46 18.65 18.65C 16.98 20.33 15.429999 22.09 14.039999 23.99L14.039999 23.99L14.039999 24.02L14.03 24.02zM58.57 4.96C 65.81 11.34 71.59 17.7 75.95 24.02L75.95 24.02L91.34 24.02C 89.95 22.12 88.399994 20.35 86.729996 18.68C 84.549995 16.5 82.21 14.57 79.649994 12.860001C 77.119995 11.150001 74.369995 9.67 71.399994 8.400001C 71.369995 8.370001 71.34 8.370001 71.31 8.34C 68.43 7.1400003 65.46 6.19 62.37 5.59C 61.11 5.34 59.84 5.15 58.579998 4.9900002L58.579998 4.9900002L58.579998 4.96L58.57 4.96zM54.99 7.96L54.99 24.02L70.29 24.02C 66.28 18.71 61.19 13.37 54.99 7.96zM50.38 97.6L50.38 81.35L34.29 81.35C 38.43 86.79 43.81 92.23 50.38 97.6zM50.38 76.74L50.38 54.99L23.77 54.99C 24.050001 62.29 26.52 69.53 31.07 76.73L31.07 76.73L50.38 76.73L50.38 76.74zM50.38 50.38L50.38 28.64L31.86 28.64C 27.12 36 24.460001 43.239998 23.86 50.379997L23.86 50.379997L50.38 50.379997L50.38 50.38zM50.38 24.02L50.38 7.96C 44.190002 13.360001 39.100002 18.71 35.08 24.02L35.08 24.02L50.38 24.02z" stroke="none" fill="" fill-rule="nonzero" />
	</g>
</g>
</svg>