<svg width="24" height="17" viewBox="0 0 24 17" fill="none" xmlns="http://www.w3.org/2000/svg">
<path d="M23.1011 3.97096C23.1011 3.97096 22.8822 2.42591 22.2082 1.74749C21.3547 0.854606 20.4005 0.850228 19.9628 0.797705C16.829 0.570106 12.1238 0.570107 12.1238 0.570107H12.1151C12.1151 0.570107 7.40988 0.570106 4.27601 0.797705C3.83832 0.850228 2.88416 0.854606 2.03066 1.74749C1.35662 2.42591 1.14215 3.97096 1.14215 3.97096C1.14215 3.97096 0.914551 5.78738 0.914551 7.59942V9.29766C0.914551 11.1097 1.13777 12.9261 1.13777 12.9261C1.13777 12.9261 1.35662 14.4712 2.02628 15.1496C2.87978 16.0425 4.00027 16.0118 4.49924 16.1081C6.29377 16.2788 12.1194 16.3313 12.1194 16.3313C12.1194 16.3313 16.829 16.3226 19.9628 16.0994C20.4005 16.0468 21.3547 16.0425 22.2082 15.1496C22.8822 14.4712 23.1011 12.9261 23.1011 12.9261C23.1011 12.9261 23.3243 11.1141 23.3243 9.29766V7.59942C23.3243 5.78738 23.1011 3.97096 23.1011 3.97096ZM9.80405 11.3592V5.06081L15.8573 8.22094L9.80405 11.3592Z" fill="white"/>
</svg>